<svg xmlns="http://www.w3.org/2000/svg" width="375" height="182" viewBox="0 0 375 182">
  <g id="top_background" transform="translate(0)">
    <path id="Intersection_3" data-name="Intersection 3" d="M248.984,300.4a411.892,411.892,0,0,1-42.8-3.159,379.714,379.714,0,0,1-48.471-9.352,330.97,330.97,0,0,1-43.862-14.8,272.37,272.37,0,0,1-38.218-19.6A211.458,211.458,0,0,1,44.1,229.742a158.6,158.6,0,0,1-23.81-27.263q-2.446-3.594-4.609-7.267V118.4h81.7c25.731,62.087,116.58,108.1,224.391,108.1a363.644,363.644,0,0,0,68.909-6.5v57.8a343.756,343.756,0,0,1-40.219,12.155A396.429,396.429,0,0,1,267.527,300.4Z" transform="translate(-15.684 -118.403)" fill="#a2edce"/>
    <path id="Intersection_2" data-name="Intersection 2" d="M240.5,297.244a379.727,379.727,0,0,1-48.472-9.352,331.014,331.014,0,0,1-43.862-14.8,272.264,272.264,0,0,1-38.217-19.6,211.468,211.468,0,0,1-31.532-23.754,158.562,158.562,0,0,1-23.809-27.263,121,121,0,0,1-15.046-30.128q-.648-1.967-1.216-3.948H170.254c42.272,35.241,109.84,58.1,185.838,58.1q9.486,0,18.908-.478v66.12a402.629,402.629,0,0,1-82.459,8.357A413.987,413.987,0,0,1,240.5,297.244Z" transform="translate(0 -168.403)" fill="#89d9b1"/>
    <path id="Intersection_1" data-name="Intersection 1" d="M281.5,297.244a379.713,379.713,0,0,1-48.471-9.352,330.927,330.927,0,0,1-43.862-14.8,272.371,272.371,0,0,1-38.218-19.6,211.514,211.514,0,0,1-31.531-23.754q-2.862-2.633-5.557-5.339H357.521q8.644.929,17.479,1.452v72.6c-13.625,1.366-27.47,2.053-41.459,2.053A414,414,0,0,1,281.5,297.244Z" transform="translate(0 -224.403)" fill="rgba(19,83,57,0.3)"/>
  </g>
</svg>
